<?xml version="1.0" standalone="no"?><!DOCTYPE svg PUBLIC "-//W3C//DTD SVG 1.1//EN" "http://www.w3.org/Graphics/SVG/1.1/DTD/svg11.dtd"><svg t="1547519382280" class="icon" style="" viewBox="0 0 1026 1024" version="1.1" xmlns="http://www.w3.org/2000/svg" p-id="1537" xmlns:xlink="http://www.w3.org/1999/xlink" width="200.390625" height="200"><defs><style type="text/css"></style></defs><path d="M1026.77 172.847v635.1c-11.079 0.514-22.16 0.971-33.234 1.559-18.778 0.996-37.555 2.044-56.325 3.13-17.218 0.994-34.429 2.13-51.649 3.089-29.071 1.616-58.146 3.111-87.218 4.714-17.739 0.979-35.47 2.082-53.207 3.098-27.513 1.578-55.024 3.13-82.54 4.694-18.255 1.037-36.51 2.065-54.766 3.114-26.994 1.555-53.986 3.12-80.98 4.69-17.736 1.03-35.47 2.112-53.207 3.101-28.551 1.596-57.107 3.112-85.659 4.707-17.737 0.992-35.47 2.106-53.207 3.095-28.552 1.597-57.107 3.112-85.658 4.705-17.739 0.994-35.47 2.106-53.208 3.098-28.553 1.595-57.109 3.112-85.659 4.705-17.739 0.993-35.47 2.094-53.208 3.099-19.012 1.075-38.028 2.094-57.042 3.136C0 652.943 0 440.202 0 227.462c6.398-0.517 12.787-1.18 19.194-1.523 30.375-1.62 60.757-3.135 91.133-4.725 19.041-0.999 38.078-2.078 57.117-3.1 29.338-1.574 58.676-3.144 88.015-4.692 20.078-1.059 40.159-2.06 60.236-3.116 29.339-1.55 58.677-3.109 88.015-4.697 18.52-1.003 37.036-2.102 55.558-3.091 20.336-1.089 40.676-2.1 61.013-3.141 20.34-1.044 40.682-2.05 61.02-3.123 29.078-1.536 58.154-3.117 87.233-4.682 19.3-1.038 38.595-2.091 57.897-3.11 20.077-1.06 40.156-2.1 60.235-3.126 20.6-1.055 41.198-2.073 61.797-3.126 20.08-1.028 40.158-2.065 60.236-3.124 19.299-1.02 38.596-2.085 57.898-3.105 20.057-1.06 40.115-2.09 60.173-3.134zM791.846 441.002c9.122-4.348 16.96-8.01 24.738-11.804 28.208-13.763 56.3-27.774 84.652-41.237 8.458-4.015 12.842-8.73 11.899-18.977-1.163-12.632-0.278-25.452-0.278-38.192v-35.243c-6.506 0.786-12.008 1.749-17.548 2.07-28.806 1.672-57.628 3.141-86.437 4.759-16.962 0.953-33.906 2.228-50.872 3.052-24.748 1.203-49.509 2.124-74.262 3.185-2.577 0.112-5.154 0.591-7.713 0.49-4.168-0.168-8.797 0.388-12.404-1.216-18.597-8.274-36.929-17.138-56.097-26.142-1.044 1.313-2.313 2.631-3.267 4.15-23.38 37.286-46.584 74.682-70.248 111.788-3.253 5.101-0.977 6.21 2.76 7.562 16.463 5.965 33.226 11.21 49.339 18.003 8.436 3.556 11.28 0.332 15.154-6.216 10.23-17.295 21.19-34.163 32.055-51.077 1.187-1.847 3.53-3.889 5.532-4.111 8.43-0.94 16.936-1.234 25.414-1.742 17.473-1.046 34.943-2.22 52.427-3.074 24.23-1.186 48.47-2.106 72.704-3.198 2.803-0.125 5.584-0.757 8.387-0.92 12.748-0.737 25.497-1.39 37.761-2.047 3.081 8.205-0.997 11.152-7.017 14.061-33.29 16.082-66.36 32.61-99.637 48.714-2.783 1.344-6.937 1.814-9.762 0.786-21.707-7.906-43.229-16.32-64.836-24.502-17.048-6.458-17.063-6.406-27.185 8.597-1.284 1.904-2.686 3.73-3.934 5.655-5.624 8.656-11.214 17.334-17.024 26.331 17.346 6.422 33.7 12.472 50.696 18.764-28.408 14.158-55.866 27.964-83.478 41.438-3.284 1.603-7.425 1.709-11.206 1.967-8.854 0.608-17.728 0.889-26.55 1.3v48.27c15.53 0 30.666 0.164 45.793-0.124 3.423-0.066 7.07-1.175 10.178-2.696 37.527-18.373 75.053-36.742 112.388-55.5 13.267-6.665 25.13-9.393 40.332-2.726 28.533 12.518 58.245 22.441 87.756 32.605 14.77 5.085 28.756 13.803 45.47 11.746 6.365-0.783 12.795-1.047 19.186-1.612 6.816-0.603 13.626-1.285 20.214-1.91v-50.258c-6.549 0.767-12.38 1.908-18.233 2.016-6.893 0.126-14.135 0.547-20.632-1.276-12.196-3.422-23.994-8.294-35.908-12.694-16.365-6.049-32.683-12.218-50.307-18.815z m-467.551-111.67v213.873c-19.903 1.42-38.894 2.955-57.91 4.092-28.813 1.724-57.637 3.262-86.466 4.697-14.71 0.736-29.45 0.922-44.161 1.66-9.181 0.461-18.336 1.496-27.599 2.279v50.12l148.796-8.298c-18.551 24.619-36.92 48.46-54.64 72.774-7.283 9.993-15.034 15.821-28.477 14.504-12.213-1.196-24.735 0.532-37.104 1.254-8.937 0.522-17.847 1.508-27.49 2.351 0 15.201-0.161 30.48 0.236 45.743 0.043 1.616 3.45 4.598 5.156 4.5 29.5-1.718 58.97-3.946 88.466-5.781 13.661-0.85 27.366-0.99 41.034-1.75 1.89-0.106 4.237-1.52 5.432-3.058 8.927-11.483 17.58-23.181 26.388-34.756 21.638-28.438 43.18-56.949 65.066-85.194 5.826-7.52 10.197-16.904 22.232-17.396 28.839-1.178 57.647-3.052 86.472-4.565 12.115-0.635 24.257-0.862 36.346-1.794 1.926-0.15 5.162-3.005 5.214-4.686 0.417-14.03 0.349-28.08 0.046-42.117-0.031-1.367-2.668-3.884-4.02-3.831-16.2 0.603-32.39 1.516-48.574 2.5-12.796 0.778-25.579 1.767-39.4 2.732V325.251l-75.043 4.082z m211.12 277.317c2.62 0 4.636 0.11 6.64-0.018 15.392-1.002 30.775-2.25 46.179-3.027 15.48-0.782 30.986-1.08 46.477-1.664 2.809-0.106 5.596-0.68 8.403-0.834 14.811-0.829 29.624-1.592 45.31-2.423v106.995l76.341-4.167V594.903c6.934-0.832 13-1.835 19.113-2.244 17.72-1.182 35.452-2.276 53.19-3.126 24.745-1.189 49.499-2.117 74.247-3.183 1.974-0.084 3.94-0.368 5.85-0.552v-51.112c-13.892 1.121-27.357 2.519-40.858 3.226-24.474 1.285-48.974 2.134-73.462 3.231-2.537 0.115-5.046 0.836-7.584 0.993-10.089 0.622-20.183 1.13-30.864 1.713v-24.63c-25.63 1.548-50.634 3.062-76.425 4.624v24.11c-20.112 1.4-39.34 2.996-58.6 4.013-24.733 1.307-49.497 2.052-74.24 3.257-6.555 0.32-13.075 1.444-19.717 2.213v49.213z m-175.872-4.681l-0.817 2.97 59.071 115.9 82.906-4.509c-0.176-1.956-0.078-2.524-0.284-2.932-17.304-34.074-34.78-68.063-51.85-102.251-4.08-8.173-9.103-12.29-18.77-10.915-9.393 1.336-18.988 1.497-28.504 1.673-13.913 0.254-27.834 0.064-41.752 0.064z m175.111 112.35c4.185 0 7.037 0.126 9.876-0.019 19.549-1.002 39.081-2.346 58.64-2.92 5.506-0.159 7.912-1.977 10.338-6.79 11.693-23.227 23.958-46.163 35.956-69.236 3.717-7.148 7.236-14.405 11.504-22.925-7.914 0.777-14.244 1.673-20.606 1.968-14.96 0.692-29.94 0.987-44.903 1.67-7.005 0.32-12.666 2.104-15.584 10.121-3.027 8.309-8.153 15.842-12.238 23.777-10.823 21.03-21.579 42.094-32.983 64.355z m396.868-22.674c-0.21-1.246-0.08-2.663-0.668-3.646-16.487-27.473-33.045-54.906-49.593-82.342-2.227-3.69-4.925-5.73-9.82-5.372-18.486 1.348-37.012 2.156-55.514 3.279-4.373 0.265-8.72 0.969-13.86 1.56 17.552 29.144 34.412 57.287 51.52 85.281 1.38 2.256 4.454 4.959 6.725 4.945 16.274-0.1 32.55-0.691 48.813-1.458 7.362-0.346 14.69-1.449 22.397-2.247zM282.254 520.09c-0.183-1.014-0.11-1.633-0.383-1.978-15.825-20.075-32.053-39.847-47.366-60.303-7.398-9.882-15.331-15.257-28.332-13.655-16.064 1.981-32.339 2.244-48.514 3.36-5.691 0.39-11.362 1.11-17.116 1.687 0.267 1.606 0.183 2.231 0.455 2.575 16.2 20.436 32.673 40.663 48.535 61.359 6.691 8.73 13.554 13.94 25.622 12.657 19.71-2.097 39.62-2.304 59.433-3.503 2.618-0.157 5.17-1.455 7.666-2.2z m0.895-93.535c-2.532-3.558-4.315-6.294-6.327-8.853-13.246-16.843-26.81-33.445-39.723-50.538-8.24-10.907-15.938-20.08-32.283-16.817-12.488 2.494-25.695 1.28-38.566 2.016-8.539 0.491-17.048 1.518-26.708 2.41 19.966 25.465 39.227 50.153 58.74 74.637 1.28 1.607 4.54 2.431 6.816 2.32 16.408-0.802 32.802-1.897 49.195-2.986 9.187-0.61 18.364-1.388 28.856-2.189z" fill="#D81E06" p-id="1538"></path></svg>